#!OML:ASF X:\für Bonn\!DataBase\2005_08_10_Bjorn_Final\c3d\bjorn.ASF
:FULLY-SPECIFIED
:DEGREES
172
root -3.48432 18.6151 -2.66736 465.113 94.6215 474.633
lowerback 10.4971 0.173262 -10.204
upperback 17.7682 1.96042 -3.18666
thorax 13.9304 0.544735 2.24364
lowerneck 8.21079 -9.03555 -1.31639
upperneck 1.05167 -11.814 19.8771
head 0.221617 -6.12927 6.39676
rclavicle -1.11319e-014 -1.74931e-014
rhumerus -28.2234 -20.6988 -84.3332
rradius 38.5464
rwrist 6.62595
rhand -11.444 18.4706
rfingers 7.12502
rthumb 14.5927 -10.996
lclavicle -1.11319e-014 -1.74931e-014
lhumerus 0.224548 -6.06056 76.038
lradius 64.1063
lwrist -7.3824
lhand -44.9527 -11.8641
lfingers 7.12502
lthumb -17.7381 17.3468
rfemur -48.7698 -11.8216 12.3595
rtibia 86.4891
rfoot 4.37972 21.3146
rtoes -28.162
lfemur -5.54225 1.71139 -13.7835
ltibia 41.6776
lfoot -20.2346 -0.659438
ltoes -11.6783
173
root -3.41724 18.6162 -2.68325 466.409 94.6746 475.973
lowerback 10.4066 0.150338 -10.0846
upperback 17.7593 1.93514 -3.18303
thorax 13.9699 0.54321 2.18378
lowerneck 8.2299 -8.89126 -1.10778
upperneck 1.136 -11.6026 19.6147
head 0.192315 -6.0142 6.28492
rclavicle 3.18055e-015 -7.95139e-015
rhumerus -28.2492 -20.7608 -84.1994
rradius 38.5148
rwrist 6.64326
rhand -11.4377 18.4565
rfingers 7.12502
rthumb 14.5989 -11.0097
lclavicle 3.18055e-015 -7.95139e-015
lhumerus 0.399182 -6.16785 76.2023
lradius 64.1633
lwrist -7.56294
lhand -45.1123 -11.6733
lfingers 7.12502
lthumb -17.8917 17.5237
rfemur -48.7652 -11.8508 12.5202
rtibia 84.7353
rfoot 4.38419 21.0465
rtoes -28.117
lfemur -5.14978 1.51675 -13.919
ltibia 41.5288
lfoot -20.4475 -0.227658
ltoes -12.1546
174
root -3.35001 18.6147 -2.69954 467.884 94.7118 477.486
lowerback 10.3047 0.13733 -9.95098
upperback 17.7687 1.93265 -3.20028
thorax 14.0385 0.556904 2.09328
lowerneck 8.12519 -8.7603 -0.874231
upperneck 1.29274 -11.425 19.3806
head 0.20973 -5.90453 6.16832
rclavicle -7.95139e-015 -1.59028e-015
rhumerus -28.2226 -20.9315 -84.093
rradius 38.479
rwrist 6.67131
rhand -11.4074 18.5254
rfingers 7.12502
rthumb 14.628 -10.9387
lclavicle -7.95139e-015 -1.59028e-015
lhumerus 0.599763 -6.33903 76.3143
lradius 64.2278
lwrist -7.7169
lhand -45.297 -11.558
lfingers 7.12502
lthumb -18.0694 17.6227
rfemur -48.711 -11.8912 12.6607
rtibia 82.9065
rfoot 4.32813 20.8071
rtoes -28.1662
lfemur -4.7598 1.32022 -14.0817
ltibia 41.391
lfoot -20.6664 0.190997
ltoes -12.5859
175
root -3.28201 18.6128 -2.71458 469.177 94.7247 478.819
lowerback 10.2187 0.118142 -9.84987
upperback 17.7586 1.91319 -3.20856
thorax 14.0747 0.557796 2.02995
lowerneck 8.08472 -8.63654 -0.67852
upperneck 1.4375 -11.2559 19.1449
head 0.216897 -5.80366 6.06105
rclavicle 1.11319e-014 9.54166e-015
rhumerus -28.2556 -20.9969 -83.9815
rradius 38.5012
rwrist 6.64654
rhand -11.3532 18.5231
rfingers 7.12502
rthumb 14.6802 -10.9372
lclavicle 1.11319e-014 9.54166e-015
lhumerus 0.752464 -6.44771 76.4535
lradius 64.254
lwrist -7.91323
lhand -45.4726 -11.5572
lfingers 7.12502
lthumb -18.2383 17.6078
rfemur -48.5705 -11.9549 12.7717
rtibia 81.0148
rfoot 4.25403 20.6131
rtoes -28.2214
lfemur -4.3867 1.16433 -14.2488
ltibia 41.2693
lfoot -20.8756 0.554983
ltoes -13.0158
176
root -3.21403 18.6098 -2.72886 470.522 94.7633 480.171
lowerback 10.0945 0.0891942 -9.72415
upperback 17.7502 1.88535 -3.2212
thorax 14.1362 0.556716 1.94867
lowerneck 8.00843 -8.49908 -0.47526
upperneck 1.60076 -11.0731 18.8926
head 0.233595 -5.69284 5.94514
rclavicle -1.59028e-015 -1.59028e-015
rhumerus -28.2274 -21.0426 -83.8983
rradius 38.5197
rwrist 6.62656
rhand -11.2623 18.5354
rfingers 7.12502
rthumb 14.7678 -10.9185
lclavicle -1.59028e-015 -1.59028e-015
lhumerus 0.886049 -6.56208 76.5278
lradius 64.3314
lwrist -8.0538
lhand -45.6004 -11.5306
lfingers 7.12502
lthumb -18.3613 17.6228
rfemur -48.4254 -12.0024 12.9165
rtibia 79.085
rfoot 4.14473 20.3716
rtoes -28.2612
lfemur -4.0527 1.01588 -14.3876
ltibia 41.1711
lfoot -21.0832 0.895028
ltoes -13.3054
177
root -3.14517 18.6042 -2.7424 472.088 94.8139 481.764
lowerback 9.97866 0.0717619 -9.60688
upperback 17.756 1.87265 -3.21485
thorax 14.2097 0.56011 1.89319
lowerneck 7.8974 -8.36712 -0.328371
upperneck 1.75311 -10.9053 18.6757
head 0.260209 -5.58961 5.8471
rclavicle -3.65764e-014 -4.77083e-014
rhumerus -28.1713 -21.1488 -83.7861
rradius 38.525
rwrist 6.7019
rhand -11.1981 18.5699
rfingers 7.12502
rthumb 14.8297 -10.8794
lclavicle -3.65764e-014 -4.77083e-014
lhumerus 1.05572 -6.66103 76.625
lradius 64.3382
lwrist -8.18463
lhand -45.7132 -11.627
lfingers 7.12502
lthumb -18.4698 17.5161
rfemur -48.1928 -12.0513 13.0472
rtibia 77.1267
rfoot 4.16006 20.1459
rtoes -28.105
lfemur -3.69747 0.927898 -14.5197
ltibia 41.0826
lfoot -21.3286 1.22344
ltoes -13.6931
178
root -3.07612 18.5979 -2.75336 473.722 94.8485 483.393
lowerback 9.84182 0.0656153 -9.52757
upperback 17.743 1.87136 -3.19946
thorax 14.2708 0.562805 1.86903
lowerneck 7.7834 -8.2421 -0.206918
upperneck 1.93645 -10.7541 18.4674
head 0.300544 -5.49276 5.75483
rclavicle 2.06736e-014 3.18055e-014
rhumerus -28.1221 -21.1946 -83.6778
rradius 38.5214
rwrist 6.6622
rhand -11.1385 18.5901
rfingers 7.12502
rthumb 14.8871 -10.855
lclavicle 2.06736e-014 3.18055e-014
lhumerus 1.17898 -6.74397 76.7314
lradius 64.361
lwrist -8.3901
lhand -45.7568 -11.7422
lfingers 7.12502
lthumb -18.5118 17.3969
rfemur -47.9589 -12.1139 13.1789
rtibia 75.1484
rfoot 4.21904 19.9054
rtoes -28.1236
lfemur -3.38955 0.841647 -14.6603
ltibia 40.9992
lfoot -21.5296 1.49913
ltoes -13.9541
179
root -3.00639 18.5929 -2.76436 475.606 94.8695 485.257
lowerback 9.68342 0.0575783 -9.46824
upperback 17.7378 1.87235 -3.19052
thorax 14.3567 0.563904 1.8488
lowerneck 7.70157 -8.11741 -0.0548475
upperneck 2.01972 -10.5847 18.247
head 0.302848 -5.39537 5.65835
rclavicle 9.54166e-015 3.18055e-014
rhumerus -28.0491 -21.2693 -83.5732
rradius 38.5492
rwrist 6.69655
rhand -11.0748 18.598
rfingers 7.12502
rthumb 14.9484 -10.8426
lclavicle 9.54166e-015 3.18055e-014
lhumerus 1.31248 -6.81239 76.8258
lradius 64.3771
lwrist -8.5344
lhand -45.8387 -11.8969
lfingers 7.12502
lthumb -18.5906 17.2347
rfemur -47.7253 -12.1751 13.287
rtibia 73.1541
rfoot 4.52132 19.6116
rtoes -28.0664
lfemur -3.07748 0.797019 -14.8234
ltibia 40.9045
lfoot -21.7508 1.77689
ltoes -14.3021
180
root -2.93589 18.588 -2.77388 477.5 94.8959 487.118
lowerback 9.52039 0.0610716 -9.39182
upperback 17.7114 1.88559 -3.1903
thorax 14.4159 0.574571 1.81005
lowerneck 7.63105 -7.9899 0.130425
upperneck 2.13147 -10.4103 18.0249
head 0.310071 -5.29341 5.55624
rclavicle 7.95139e-015 1.59028e-014
rhumerus -28.0112 -21.3482 -83.4725
rradius 38.5685
rwrist 6.70055
rhand -11.0236 18.6355
rfingers 7.12502
rthumb 14.9977 -10.8014
lclavicle 7.95139e-015 1.59028e-014
lhumerus 1.42032 -6.91183 76.9085
lradius 64.3795
lwrist -8.68098
lhand -45.8599 -12.0983
lfingers 7.12502
lthumb -18.6109 17.0314
rfemur -47.4762 -12.2452 13.4046
rtibia 71.1463
rfoot 4.9368 19.2717
rtoes -28.0677
lfemur -2.77348 0.748689 -14.9791
ltibia 40.799
lfoot -21.9825 2.00179
ltoes -14.4497
181
root -2.86568 18.5852 -2.78294 479.504 94.9307 489.068
lowerback 9.33387 0.057568 -9.34388
upperback 17.681 1.88809 -3.17586
thorax 14.4857 0.573544 1.80269
lowerneck 7.56051 -7.85618 0.292987
upperneck 2.23674 -10.2301 17.7747
head 0.315486 -5.18958 5.4492
rclavicle -1.90833e-014 -5.88403e-014
rhumerus -27.9417 -21.355 -83.3748
rradius 38.5696
rwrist 6.68571
rhand -10.9732 18.6437
rfingers 7.12502
rthumb 15.0464 -10.7896
lclavicle -1.90833e-014 -5.88403e-014
lhumerus 1.48202 -6.96317 76.9888
lradius 64.4071
lwrist -8.80548
lhand -45.8764 -12.3125
lfingers 7.12502
lthumb -18.6268 16.8157
rfemur -47.2352 -12.3213 13.5264
rtibia 69.1357
rfoot 5.44256 18.936
rtoes -27.9392
lfemur -2.49129 0.713591 -15.1369
ltibia 40.6767
lfoot -22.1638 2.23439
ltoes -14.5382
182
root -2.79462 18.5809 -2.79065 481.391 94.9406 490.892
lowerback 9.14215 0.0444596 -9.34316
upperback 17.6383 1.87265 -3.14468
thorax 14.5455 0.555384 1.83925
lowerneck 7.5047 -7.71402 0.353782
upperneck 2.36418 -10.0503 17.6032
head 0.334312 -5.08641 5.38242
rclavicle -2.38542e-014 -3.33958e-014
rhumerus -27.8885 -21.3986 -83.2364
rradius 38.5575
rwrist 6.71661
rhand -10.9153 18.6912
rfingers 7.12502
rthumb 15.1021 -10.7379
lclavicle -2.38542e-014 -3.33958e-014
lhumerus 1.50916 -6.95915 77.1075
lradius 64.4111
lwrist -8.98844
lhand -45.8521 -12.4293
lfingers 7.12502
lthumb -18.6035 16.7011
rfemur -46.9814 -12.4182 13.6298
rtibia 67.1344
rfoot 5.96899 18.5307
rtoes -27.8607
lfemur -2.21093 0.693528 -15.3037
ltibia 40.5442
lfoot -22.3602 2.39979
ltoes -14.6579
183
root -2.72355 18.5771 -2.7993 483.032 94.9459 492.481
lowerback 8.98306 0.0278343 -9.29014
upperback 17.5928 1.85223 -3.13946
thorax 14.5816 0.546057 1.81773
lowerneck 7.46597 -7.58895 0.533189
upperneck 2.45835 -9.87616 17.3641
head 0.332926 -4.98772 5.27799
rclavicle 2.70347e-014 4.92986e-014
rhumerus -27.8538 -21.3951 -83.1636
rradius 38.5936
rwrist 6.65091
rhand -10.8472 18.6395
rfingers 7.12502
rthumb 15.1676 -10.7846
lclavicle 2.70347e-014 4.92986e-014
lhumerus 1.51923 -7.0152 77.1528
lradius 64.45
lwrist -9.14849
lhand -45.8134 -12.4958
lfingers 7.12502
lthumb -18.5662 16.6382
rfemur -46.669 -12.5484 13.7283
rtibia 65.1261
rfoot 6.54835 18.1599
rtoes -27.6362
lfemur -1.92098 0.640504 -15.4682
ltibia 40.4109
lfoot -22.5434 2.55134
ltoes -14.5435
184
root -2.65184 18.5738 -2.80562 484.817 94.9576 494.19
lowerback 8.78561 0.0161976 -9.27031
upperback 17.5525 1.8411 -3.11374
thorax 14.6477 0.533223 1.8379
lowerneck 7.3939 -7.46726 0.65654
upperneck 2.55107 -9.71518 17.1543
head 0.342509 -4.89523 5.18963
rclavicle 7.95139e-016 2.70347e-014
rhumerus -27.7753 -21.4319 -83.0647
rradius 38.5694
rwrist 6.71047
rhand -10.8299 18.5899
rfingers 7.12502
rthumb 15.1844 -10.8329
lclavicle 7.95139e-016 2.70347e-014
lhumerus 1.54654 -7.07527 77.2145
lradius 64.4632
lwrist -9.23219
lhand -45.8013 -12.6202
lfingers 7.12502
lthumb -18.5546 16.5149
rfemur -46.3509 -12.6749 13.8354
rtibia 63.1247
rfoot 7.17244 17.7228
rtoes -27.359
lfemur -1.65984 0.644467 -15.6234
ltibia 40.271
lfoot -22.715 2.70914
ltoes -14.8156
